<svg width="512" height="512" viewBox="0 0 512 512" fill="none" xmlns="http://www.w3.org/2000/svg">
<rect width="512" height="512" fill="#16203F"/>
<path d="M336.876 327.834C336.696 332.35 336.605 335.873 336.605 338.402C336.605 344.905 336.921 350.008 337.554 353.712C338.276 357.324 339.405 359.944 340.941 361.57C342.567 363.105 344.779 363.873 347.579 363.873C349.025 363.873 350.741 363.421 352.728 362.518C354.715 361.615 356.521 360.441 358.147 358.995C359.141 358.092 360.134 357.641 361.128 357.641C362.212 357.641 363.07 358.273 363.702 359.537C364.424 360.712 364.786 362.157 364.786 363.873C364.786 365.589 364.424 367.26 363.702 368.886C363.07 370.511 362.076 371.866 360.721 372.95C356.024 376.834 350.695 378.776 344.734 378.776C336.154 378.776 329.876 375.208 325.902 368.073C321.928 360.847 319.941 351.454 319.941 339.892C319.941 335.918 320.076 331.899 320.347 327.834H315.063C312.354 327.834 310.502 327.338 309.509 326.344C308.605 325.35 308.154 323.77 308.154 321.602C308.154 316.544 310.186 314.015 314.251 314.015H321.973C323.509 304.08 325.857 295.002 329.018 286.783C332.179 278.564 335.973 272.015 340.399 267.138C344.915 262.26 349.747 259.822 354.895 259.822C358.689 259.822 361.67 261.493 363.837 264.835C366.005 268.177 367.089 272.377 367.089 277.435C367.089 291.435 361.218 303.628 349.476 314.015H364.65C366.095 314.015 367.134 314.331 367.766 314.963C368.399 315.596 368.715 316.77 368.715 318.486C368.715 324.718 363.612 327.834 353.405 327.834H336.876ZM351.237 272.828C349.883 272.828 348.347 274.544 346.631 277.977C345.005 281.318 343.425 286.015 341.889 292.067C340.444 298.028 339.225 304.667 338.231 311.983C343.56 307.376 347.534 302.228 350.154 296.538C352.863 290.757 354.218 285.518 354.218 280.822C354.218 275.493 353.225 272.828 351.237 272.828Z" fill="#81ECAB"/>
<path d="M321.759 347.886C322.934 347.886 323.837 348.428 324.469 349.512C325.192 350.595 325.553 352.086 325.553 353.982C325.553 357.595 324.695 360.395 322.979 362.382C319.637 366.447 314.895 370.195 308.753 373.628C302.702 377.06 296.198 378.776 289.244 378.776C279.76 378.776 272.398 376.202 267.16 371.053C261.921 365.905 259.302 358.86 259.302 349.918C259.302 343.686 260.611 337.905 263.231 332.576C265.85 327.157 269.463 322.867 274.069 319.705C278.766 316.544 284.05 314.963 289.921 314.963C295.16 314.963 299.36 316.544 302.521 319.705C305.682 322.776 307.263 326.976 307.263 332.305C307.263 338.537 305.005 343.912 300.489 348.428C296.063 352.853 288.521 356.376 277.863 358.995C280.121 363.15 284.411 365.228 290.734 365.228C294.798 365.228 299.405 363.828 304.553 361.028C309.792 358.137 314.308 354.389 318.101 349.783C319.185 348.518 320.405 347.886 321.759 347.886ZM287.618 328.241C284.276 328.241 281.431 330.183 279.082 334.066C276.824 337.95 275.695 342.647 275.695 348.157V348.428C281.024 347.163 285.224 345.266 288.295 342.737C291.366 340.208 292.902 337.273 292.902 333.931C292.902 332.215 292.405 330.86 291.411 329.867C290.508 328.783 289.244 328.241 287.618 328.241Z" fill="#81ECAB"/>
<path d="M268.572 347.886C269.746 347.886 270.649 348.428 271.281 349.512C272.004 350.595 272.365 352.086 272.365 353.982C272.365 357.595 271.507 360.395 269.791 362.382C266.449 366.447 261.707 370.195 255.565 373.628C249.514 377.06 243.011 378.776 236.056 378.776C226.572 378.776 219.211 376.202 213.972 371.053C208.733 365.905 206.114 358.86 206.114 349.918C206.114 343.686 207.424 337.905 210.043 332.576C212.662 327.157 216.275 322.867 220.882 319.705C225.578 316.544 230.862 314.963 236.733 314.963C241.972 314.963 246.172 316.544 249.333 319.705C252.494 322.776 254.075 326.976 254.075 332.305C254.075 338.537 251.817 343.912 247.301 348.428C242.875 352.853 235.333 356.376 224.675 358.995C226.933 363.15 231.224 365.228 237.546 365.228C241.611 365.228 246.217 363.828 251.365 361.028C256.604 358.137 261.12 354.389 264.914 349.783C265.998 348.518 267.217 347.886 268.572 347.886ZM234.43 328.241C231.088 328.241 228.243 330.183 225.895 334.066C223.636 337.95 222.507 342.647 222.507 348.157V348.428C227.836 347.163 232.036 345.266 235.107 342.737C238.178 340.208 239.714 337.273 239.714 333.931C239.714 332.215 239.217 330.86 238.224 329.867C237.32 328.783 236.056 328.241 234.43 328.241Z" fill="#81ECAB"/>
<path d="M116.947 378.776C113.515 378.776 111.076 376.969 109.631 373.357C108.276 369.744 107.599 363.963 107.599 356.015C107.599 344.273 109.27 333.118 112.612 322.55C113.425 319.931 114.734 318.034 116.541 316.86C118.438 315.596 121.057 314.963 124.399 314.963C126.205 314.963 127.47 315.189 128.192 315.641C128.915 316.092 129.276 316.95 129.276 318.215C129.276 319.66 128.599 322.912 127.244 327.97C126.341 331.583 125.618 334.744 125.076 337.454C124.534 340.073 124.083 343.37 123.721 347.344C126.16 340.299 129.05 334.337 132.392 329.46C135.825 324.583 139.302 320.97 142.824 318.621C146.437 316.183 149.824 314.963 152.986 314.963C156.147 314.963 158.36 315.686 159.624 317.131C160.979 318.576 161.657 320.789 161.657 323.77C161.657 326.66 160.799 331.899 159.082 339.486C158.36 342.737 157.863 345.176 157.592 346.802C162.108 335.692 167.121 327.608 172.631 322.55C178.14 317.492 183.289 314.963 188.076 314.963C193.947 314.963 196.882 317.899 196.882 323.77C196.882 327.292 195.889 333.66 193.902 342.873C192.185 350.731 191.327 355.924 191.327 358.453C191.327 362.066 192.637 363.873 195.256 363.873C197.063 363.873 199.185 362.789 201.624 360.621C204.153 358.363 207.495 354.75 211.65 349.783C212.734 348.518 213.953 347.886 215.308 347.886C216.482 347.886 217.385 348.428 218.018 349.512C218.74 350.595 219.101 352.086 219.101 353.982C219.101 357.595 218.243 360.395 216.527 362.382C212.643 367.17 208.443 371.099 203.927 374.169C199.502 377.24 194.444 378.776 188.753 378.776C184.147 378.776 180.669 377.466 178.321 374.847C175.973 372.137 174.798 368.253 174.798 363.195C174.798 360.666 175.431 356.15 176.695 349.647C177.869 343.957 178.457 340.028 178.457 337.86C178.457 336.415 177.96 335.692 176.966 335.692C175.792 335.692 174.121 337.228 171.953 340.299C169.786 343.279 167.618 347.254 165.45 352.221C163.282 357.189 161.521 362.428 160.166 367.937C159.173 372.273 157.999 375.163 156.644 376.608C155.379 378.053 153.302 378.776 150.412 378.776C147.431 378.776 145.173 377.376 143.637 374.576C142.192 371.686 141.47 368.208 141.47 364.144C141.47 360.711 141.921 355.744 142.824 349.241C143.547 343.46 143.908 339.666 143.908 337.86C143.908 336.415 143.412 335.692 142.418 335.692C141.063 335.692 139.347 337.318 137.27 340.57C135.192 343.821 133.16 347.976 131.173 353.034C129.276 358.092 127.741 363.06 126.567 367.937C125.573 372.182 124.399 375.073 123.044 376.608C121.779 378.053 119.747 378.776 116.947 378.776Z" fill="#81ECAB"/>
<path d="M378.355 231.757C373.659 231.757 370.046 230.673 367.517 228.505C365.078 226.337 363.859 223.899 363.859 221.189C363.859 218.841 364.717 216.808 366.433 215.092C368.149 213.376 370.678 212.518 374.02 212.518C375.194 212.518 376.549 212.654 378.084 212.924C379.71 213.105 380.93 213.241 381.743 213.331C381.652 210.983 381.11 208.77 380.117 206.692C379.214 204.615 378.039 202.628 376.594 200.731C375.149 198.744 373.794 197.028 372.53 195.583C369.73 200.912 366.93 205.337 364.13 208.86C361.42 212.383 358.439 215.724 355.188 218.886C353.562 220.512 351.846 221.324 350.039 221.324C348.594 221.324 347.42 220.828 346.517 219.834C345.614 218.75 345.162 217.441 345.162 215.905C345.162 214.099 345.794 212.428 347.059 210.892L348.82 208.724C353.788 202.583 357.536 197.525 360.065 193.55C361.691 190.931 363.317 187.815 364.943 184.202C366.659 180.589 368.872 175.667 371.581 169.434C373.297 165.46 376.865 163.473 382.284 163.473C384.813 163.473 386.575 163.699 387.568 164.151C388.562 164.602 389.059 165.325 389.059 166.318C389.059 166.86 388.878 167.718 388.517 168.892C388.155 170.067 387.659 171.241 387.026 172.415C385.401 175.667 384.588 178.421 384.588 180.679C384.588 182.034 385.039 183.525 385.943 185.15C386.936 186.776 388.426 188.808 390.413 191.247C393.304 195.041 395.471 198.292 396.917 201.002C398.452 203.621 399.22 206.512 399.22 209.673C399.22 213.466 398.317 217.079 396.51 220.512C394.794 223.853 392.355 226.563 389.194 228.641C386.033 230.718 382.42 231.757 378.355 231.757Z" fill="#81ECAB"/>
<path d="M336.447 147.486C334.459 147.486 332.879 147.034 331.705 146.131C330.53 145.228 329.943 143.783 329.943 141.796C329.943 140.983 330.079 140.034 330.35 138.951C331.343 134.796 332.066 130.957 332.518 127.435C333.059 123.912 333.33 119.983 333.33 115.647C333.33 111.131 334.369 107.654 336.447 105.215C338.614 102.777 341.369 101.557 344.711 101.557C347.963 101.557 350.401 102.46 352.027 104.267C353.743 105.983 354.601 108.331 354.601 111.312C354.601 114.473 353.653 118.673 351.756 123.912C349.859 129.151 347.556 134.254 344.846 139.222C343.04 142.563 341.595 144.776 340.511 145.86C339.518 146.944 338.163 147.486 336.447 147.486Z" fill="#81ECAB"/>
<path d="M284.879 177.834C284.699 182.35 284.608 185.873 284.608 188.402C284.608 194.905 284.925 200.008 285.557 203.712C286.279 207.324 287.408 209.944 288.944 211.57C290.57 213.105 292.783 213.873 295.583 213.873C297.028 213.873 298.744 213.421 300.731 212.518C302.718 211.615 304.524 210.441 306.15 208.995C307.144 208.092 308.137 207.641 309.131 207.641C310.215 207.641 311.073 208.273 311.705 209.537C312.428 210.712 312.789 212.157 312.789 213.873C312.789 215.589 312.428 217.26 311.705 218.886C311.073 220.511 310.079 221.866 308.724 222.95C304.028 226.834 298.699 228.776 292.737 228.776C284.157 228.776 277.879 225.208 273.905 218.073C269.931 210.847 267.944 201.454 267.944 189.892C267.944 185.918 268.079 181.899 268.35 177.834H263.067C260.357 177.834 258.505 177.338 257.512 176.344C256.609 175.35 256.157 173.77 256.157 171.602C256.157 166.544 258.189 164.015 262.254 164.015H269.976C271.512 154.08 273.86 145.002 277.021 136.783C280.183 128.564 283.976 122.015 288.402 117.138C292.918 112.26 297.75 109.822 302.899 109.822C306.692 109.822 309.673 111.493 311.841 114.835C314.008 118.177 315.092 122.377 315.092 127.435C315.092 141.434 309.221 153.628 297.479 164.015H312.653C314.099 164.015 315.137 164.331 315.77 164.963C316.402 165.596 316.718 166.77 316.718 168.486C316.718 174.718 311.615 177.834 301.408 177.834H284.879ZM299.241 122.828C297.886 122.828 296.35 124.544 294.634 127.977C293.008 131.318 291.428 136.015 289.892 142.067C288.447 148.028 287.228 154.667 286.234 161.983C291.563 157.376 295.537 152.228 298.157 146.538C300.866 140.757 302.221 135.518 302.221 130.822C302.221 125.493 301.228 122.828 299.241 122.828Z" fill="#81ECAB"/>
<path d="M269.762 197.886C270.937 197.886 271.84 198.428 272.472 199.512C273.195 200.595 273.556 202.086 273.556 203.983C273.556 207.595 272.698 210.395 270.982 212.382C267.64 216.447 262.898 220.195 256.756 223.628C250.704 227.06 244.201 228.776 237.246 228.776C227.763 228.776 220.401 226.202 215.163 221.053C209.924 215.905 207.305 208.86 207.305 199.918C207.305 193.686 208.614 187.905 211.234 182.576C213.853 177.157 217.466 172.867 222.072 169.705C226.769 166.544 232.053 164.963 237.924 164.963C243.163 164.963 247.363 166.544 250.524 169.705C253.685 172.776 255.266 176.976 255.266 182.305C255.266 188.537 253.008 193.912 248.492 198.428C244.066 202.853 236.524 206.376 225.866 208.995C228.124 213.15 232.414 215.228 238.737 215.228C242.801 215.228 247.408 213.828 252.556 211.028C257.795 208.137 262.311 204.389 266.104 199.783C267.188 198.518 268.408 197.886 269.762 197.886ZM235.621 178.241C232.279 178.241 229.434 180.183 227.085 184.066C224.827 187.95 223.698 192.647 223.698 198.157V198.428C229.027 197.163 233.227 195.266 236.298 192.737C239.369 190.208 240.904 187.273 240.904 183.931C240.904 182.215 240.408 180.86 239.414 179.867C238.511 178.783 237.246 178.241 235.621 178.241Z" fill="#81ECAB"/>
<path d="M205.688 197.886C206.863 197.886 207.766 198.428 208.398 199.512C209.121 200.595 209.482 202.086 209.482 203.983C209.482 207.505 208.624 210.305 206.908 212.382C201.85 218.434 196.927 222.679 192.14 225.118C187.443 227.557 181.753 228.776 175.069 228.776C170.373 228.776 166.037 228.189 162.063 227.015C158.089 225.84 153.257 224.079 147.566 221.731C142.418 219.473 137.45 217.621 132.663 216.176C128.057 224.576 121.147 228.776 111.934 228.776C106.876 228.776 102.857 227.647 99.8762 225.389C96.8053 223.04 95.2698 220.06 95.2698 216.447C95.2698 212.021 97.3923 208.363 101.637 205.473C105.883 202.492 111.528 201.002 118.573 201.002H120.334L122.773 161.576C123.315 152.544 124.941 145.093 127.65 139.222C130.36 133.351 134.108 128.338 138.895 124.183C143.05 120.57 147.792 117.86 153.121 116.054C158.45 114.157 164.095 113.209 170.056 113.209C179.811 113.209 187.308 115.738 192.547 120.796C197.785 125.854 200.405 132.447 200.405 140.576C200.405 146.086 199.411 150.557 197.424 153.989C195.437 157.331 192.682 159.002 189.16 159.002C186.631 159.002 184.643 158.415 183.198 157.241C181.753 155.976 181.031 154.215 181.031 151.957C181.031 151.144 181.211 149.654 181.573 147.486C182.114 144.957 182.385 142.699 182.385 140.712C182.385 136.918 181.256 133.938 178.998 131.77C176.831 129.512 173.489 128.383 168.973 128.383C161.024 128.383 154.882 131.002 150.547 136.241C146.211 141.389 143.457 149.518 142.282 160.628L139.166 191.383C138.715 195.718 138.128 199.466 137.405 202.628C143.186 203.621 150.411 205.202 159.082 207.37C164.14 208.634 168.024 209.537 170.734 210.079C173.444 210.621 175.837 210.892 177.914 210.892C183.153 210.892 187.624 210.034 191.327 208.318C195.121 206.512 198.689 203.666 202.03 199.783C203.114 198.518 204.334 197.886 205.688 197.886Z" fill="#81ECAB"/>
</svg>
